<svg width="28" height="26" viewBox="0 0 28 26" fill="none" xmlns="http://www.w3.org/2000/svg">
<path d="M13.9999 25.7609L2.68656 14.4476C1.18614 12.9473 0.343143 10.9125 0.343018 8.79072C0.342893 6.66893 1.18565 4.634 2.68589 3.13358C4.18613 1.63316 6.22097 0.790164 8.34275 0.790039C10.4645 0.789914 12.4995 1.63267 13.9999 3.13291C15.501 1.63437 17.5355 0.792711 19.6566 0.792711C21.7777 0.792711 23.8121 1.63437 25.3132 3.13291V3.13291C26.8111 4.6344 27.6523 6.66869 27.6523 8.78958C27.6523 10.9105 26.8111 12.9448 25.3132 14.4462L13.9999 25.7609ZM8.34256 3.45691C7.28762 3.45687 6.25636 3.76969 5.37922 4.35581C4.50208 4.94192 3.81846 5.775 3.41484 6.74968C3.01121 7.72435 2.9057 8.79683 3.11166 9.83147C3.31761 10.8661 3.82578 11.8164 4.57189 12.5622L13.9999 21.9902L23.4279 12.5622C23.9694 12.0328 24.392 11.3941 24.6674 10.6886C24.9429 9.98314 25.0649 9.22709 25.0255 8.47078C24.986 7.71447 24.7859 6.97524 24.4385 6.30228C24.0911 5.62932 23.6043 5.03807 23.0106 4.56786C22.4169 4.09766 21.7299 3.75929 20.9953 3.57527C20.2606 3.39126 19.4952 3.36581 18.75 3.50063C18.0047 3.63544 17.2967 3.92743 16.6731 4.35716C16.0495 4.7869 15.5246 5.34451 15.1332 5.99291L13.9999 7.82224L12.8666 5.99291C12.3987 5.21296 11.7351 4.56885 10.9415 4.12447C10.148 3.6801 9.25203 3.45089 8.34256 3.45958V3.45691Z" fill="black"/>
</svg>
